<svg xmlns="http://www.w3.org/2000/svg" viewBox="0 0 47 45"><g fill="#5952E4" fill-rule="nonzero"><path d="M45.75 0h-25.5a.75.75 0 0 0-.75.75v21a.75.75 0 0 0 1.219.586l7.294-5.836H45.75a.75.75 0 0 0 .75-.75v-15a.75.75 0 0 0-.75-.75z"/><circle cx="36.75" cy="26.25" r="5.25"/><circle cx="9.75" cy="26.25" r="5.25"/><path d="M17.657 36.544C16.081 35.612 13.43 34.5 9.75 34.5c-3.729 0-6.367 1.108-7.923 2.038A3.77 3.77 0 0 0 0 39.76v4.489c0 .415.335.75.75.75h18a.75.75 0 0 0 .75-.75v-4.474c0-1.322-.706-2.56-1.843-3.232zM44.657 36.544c-1.575-.932-4.227-2.044-7.907-2.044-3.729 0-6.367 1.108-7.923 2.038A3.77 3.77 0 0 0 27 39.76v4.489c0 .415.335.75.75.75h18a.75.75 0 0 0 .75-.75v-4.474c0-1.322-.706-2.56-1.843-3.232z"/></g></svg>