<svg xmlns="http://www.w3.org/2000/svg" viewBox="0 0 46 43"><g fill="#5952E4" fill-rule="nonzero"><circle cx="19.24" cy="14.06" r="3.7"/><path d="M20.72 19.98h-2.96a6.667 6.667 0 0 0-6.66 6.66c0 .409.331.74.74.74h14.8a.74.74 0 0 0 .74-.74 6.667 6.667 0 0 0-6.66-6.66z"/><path d="M15.31 29.6H5.92a.74.74 0 0 1-.74-.74V8.14a.74.74 0 0 1 .74-.74h13.83a4.47 4.47 0 0 1-1.39-1.48H2.96A2.96 2.96 0 0 0 0 8.88v19.24a2.96 2.96 0 0 0 2.96 2.96h10.96a4.47 4.47 0 0 1 1.39-1.48zM36.26 25.9v-9.976l-2.96-5.328V28.86h.74c2.004 0 2.22-2.072 2.22-2.96z"/><path d="M39.461 4.138a4.434 4.434 0 0 0-2.48-1.5l-8.4-1.8-.93-.098h-5.324a3.046 3.046 0 0 0-3.073 2.67A2.96 2.96 0 0 0 22.2 6.66h4.44l7.4 2.22 3.7 6.66V25.9a4.44 4.44 0 0 1-4.44 4.44H17.893a3.051 3.051 0 0 0-3.072 2.6 2.956 2.956 0 0 0 2.399 3.265l10.008 1.406c.589.084 1.155.285 1.665.592l5.572 3.344c.69.414 1.48.633 2.285.633h9.13V11.84l-6.419-7.702z"/></g></svg>