<svg xmlns="http://www.w3.org/2000/svg" viewBox="0 0 36 42"><g fill="#5952E4" fill-rule="evenodd"><path d="M34.89 3.772L18.017.022a.96.96 0 0 0-.407 0L.734 3.772A.938.938 0 0 0 0 4.688v18.75C0 33.275 7.975 41.25 17.813 41.25c9.837 0 17.812-7.975 17.812-17.813V4.688c0-.44-.305-.82-.734-.915zm-8.64 25.29c0 .518-.42.938-.938.938h-15a.937.937 0 0 1-.937-.938v-9.375c0-.517.42-.937.938-.937h2.812v-4.688a4.687 4.687 0 1 1 9.375 0v4.688h2.813c.517 0 .937.42.937.938v9.375z"/><path fill-rule="nonzero" d="M17.813 11.25A2.812 2.812 0 0 0 15 14.063v4.687h5.625v-4.688a2.812 2.812 0 0 0-2.813-2.812z"/><circle cx="17.813" cy="24.375" r="1.875" fill-rule="nonzero"/></g></svg>